<svg xmlns="http://www.w3.org/2000/svg" viewBox="0 0 98 96">
  <path fill-rule="evenodd" clip-rule="evenodd" d="M48.854 0C21.839 0 0 22 0 49.217c0 21.756 13.993 40.172 33.405 46.69 2.427.49 3.316-1.059 3.316-2.362 0-1.141-.08-5.052-.08-9.127-13.59 2.934-16.36-6.104-16.36-6.104-2.205-5.632-5.466-7.16-5.466-7.16-4.474-3.078.337-3.018.337-3.018 4.939.356 7.541 5.125 7.541 5.125 4.382 7.608 11.455 5.409 14.28 4.14 .442-3.197 1.706-5.409 3.109-6.657-10.844-1.244-22.257-5.466-22.257-24.4 0-5.385 1.9-9.789 5.023-13.238-.49-1.246-2.181-6.262.483-13.048 0 0 4.098-1.325 13.43 5.013 3.903-1.09 8.086-1.636 12.23-1.655 4.137.019 8.32 .565 12.223 1.655 9.324-6.338 13.411-5.013 13.411-5.013 2.671 6.786.98 11.802.489 13.048 3.129 3.449 5.017 7.853 5.017 13.238 0 18.984-11.439 23.136-22.345 24.364 1.751 1.528 3.313 4.545 3.313 9.157 0 6.619-.059 11.954-.059 13.564 0 1.314.881 2.871 3.344 2.383 19.387-6.526 33.376-24.945 33.376-46.712C97.707 22 75.86 0 48.854 0z" fill="#24292f"/>
</svg>
